<svg xmlns="http://www.w3.org/2000/svg" width="109.528" height="40" viewBox="0 0 109.528 40">
  <g id="로고" transform="translate(-55.472)">
    <g id="그룹_4" data-name="그룹 4" transform="translate(55.472 20.483)">
      <path id="패스_4" data-name="패스 4" d="M700.124,691.837v-1.822h2.513v1.822h4.1v1.948h-2.157a1.58,1.58,0,0,1,.167.146,4.725,4.725,0,0,1,1.037,1.413,4.047,4.047,0,0,1,0,3.455,4.711,4.711,0,0,1-1.037,1.414,4.935,4.935,0,0,1-1.518.964,5,5,0,0,1-3.707,0,4.929,4.929,0,0,1-1.518-.964,4.7,4.7,0,0,1-1.037-1.414,4.045,4.045,0,0,1,0-3.455,4.715,4.715,0,0,1,1.037-1.413,1.533,1.533,0,0,1,.167-.146h-2.241v-1.948Zm3.811,5.13a2.4,2.4,0,0,0-.754-1.769,2.553,2.553,0,0,0-3.6,0,2.454,2.454,0,0,0,0,3.539,2.553,2.553,0,0,0,3.6,0A2.4,2.4,0,0,0,703.936,696.967Zm7.623,11.623H699.391v-5.654h2.387v3.623h9.78Zm-2.89-12.628h-2.115v-2.115h2.115v-3.539h2.262V703.9h-2.262v-3.581h-2.115V698.2h2.115Z" transform="translate(-695.936 -690.015)" fill="#fff"/>
      <path id="패스_5" data-name="패스 5" d="M782.079,704.981V692.186h6.094v2.052H784.32v8.691h1.529a27.163,27.163,0,0,0,4.356-.356v-11.2h2.178v6.115h1.989v-6.115h2.22v18.282h-2.22V699.536h-1.989v10.115H790.2v-5.026a24.713,24.713,0,0,1-4.419.356Z" transform="translate(-763.441 -691.076)" fill="#fff"/>
      <path id="패스_6" data-name="패스 6" d="M864.846,695v-.8h-4.1v-2.052h4.1v-2.136h2.3v2.136H871V694.2h-3.853v.8a9.158,9.158,0,0,0,1.089,4.272,13.43,13.43,0,0,0,3.33,3.853l-1.445,1.487a17.228,17.228,0,0,1-3.811-4.419q-.168-.272-.314-.545-.147.273-.314.565a16.54,16.54,0,0,1-3.916,4.461l-1.613-1.4a14.42,14.42,0,0,0,3.581-4.021A8.425,8.425,0,0,0,864.846,695Zm10.01-4.691v6.366h2.764v2.136h-2.764v9.78h-2.262V690.308Z" transform="translate(-824.625 -690.015)" fill="#fff"/>
      <path id="패스_7" data-name="패스 7" d="M968.041,702.328v2.031h-4.628l.042.042a4.641,4.641,0,0,1,1.089,1.476,4.321,4.321,0,0,1,0,3.623,4.638,4.638,0,0,1-1.089,1.476,5.33,5.33,0,0,1-7.12,0,4.642,4.642,0,0,1-1.089-1.476,4.326,4.326,0,0,1,0-3.623,4.645,4.645,0,0,1,1.089-1.476l.042-.042h-4.628v-2.031Zm-9.34-6.722v-.021h-5.068V693.6h12.523v1.989h-5.068v.021q0,1.424,2.408,2.7a12.1,12.1,0,0,0,3.643,1.11l-.942,1.717a13.809,13.809,0,0,1-4.817-1.738,7.79,7.79,0,0,1-1.487-1.131,7.811,7.811,0,0,1-1.487,1.131,13.8,13.8,0,0,1-4.816,1.738l-.942-1.717a12.1,12.1,0,0,0,3.644-1.11Q958.7,697.03,958.7,695.606Zm3.979,12.041a2.519,2.519,0,0,0-.827-1.9,2.833,2.833,0,0,0-3.916,0,2.585,2.585,0,0,0,0,3.79,2.833,2.833,0,0,0,3.916,0A2.519,2.519,0,0,0,962.68,707.647Z" transform="translate(-896.401 -692.821)" fill="#fff"/>
      <path id="패스_8" data-name="패스 8" d="M1043.743,692.081v2.492a22.9,22.9,0,0,1-.314,3.77q1.508-.063,2.953-.231v-6.743h2.241v14.219h-2.241v-1.927h-4.1v-1.927h4.1v-1.654a42.871,42.871,0,0,1-5.424.314h-1.424v3.288h-2.241v-3.288h-4.209v-1.989h8.125a21.786,21.786,0,0,0,.293-3.5v-.859h-6.617v-1.969Zm5.256,17.57h-12.565v-4.9h2.3v2.869H1049Z" transform="translate(-960.139 -691.076)" fill="#fff"/>
    </g>
    <path id="패스_9" data-name="패스 9" d="M1074,649.842l6.275-5.842H1091.1v12.123l-5.852,4.97.031-8.546-.031-2.488v-.216Z" transform="translate(-936.73 -633.314)" fill="#fff"/>
    <path id="패스_10" data-name="패스 10" d="M1126,603.063v-3.894l5.852-5.2v9.094Z" transform="translate(-977.48 -593.969)" fill="#d5b45c"/>
    <path id="패스_11" data-name="패스 11" d="M1160,644l0,5.842h2.761l6.362-5.842Z" transform="translate(-1004.123 -633.269)" fill="#d5b45c"/>
  </g>
</svg>
