<svg xmlns="http://www.w3.org/2000/svg" width="19.793" height="17.686" viewBox="0 0 19.793 17.686">
  <g id="그룹_69" data-name="그룹 69" transform="translate(-733.535 -456.401)">
    <line id="선_17" data-name="선 17" x2="3.191" y2="5.527" transform="translate(745.072 462.403)" fill="none" stroke="#fff" stroke-linecap="round" stroke-linejoin="round" stroke-width="1.5"/>
    <line id="선_18" data-name="선 18" y1="5.524" x2="3.189" transform="translate(738.756 462.5)" fill="none" stroke="#fff" stroke-linecap="round" stroke-linejoin="round" stroke-width="1.5"/>
    <line id="선_19" data-name="선 19" x1="6.694" transform="translate(740.096 470.565)" fill="none" stroke="#fff" stroke-linecap="round" stroke-linejoin="round" stroke-width="1.5"/>
    <path id="패스_33" data-name="패스 33" d="M756.926,460a2.852,2.852,0,1,1-2.852-2.852A2.852,2.852,0,0,1,756.926,460Z" transform="translate(-10.678)" fill="none" stroke="#fff" stroke-linecap="round" stroke-linejoin="round" stroke-width="1.5"/>
    <path id="패스_34" data-name="패스 34" d="M739.989,488.365a2.852,2.852,0,1,1-2.851-2.852A2.852,2.852,0,0,1,739.989,488.365Z" transform="translate(0 -17.879)" fill="none" stroke="#fff" stroke-linecap="round" stroke-linejoin="round" stroke-width="1.5"/>
    <path id="패스_35" data-name="패스 35" d="M774.051,488.365a2.852,2.852,0,1,1-2.852-2.852A2.852,2.852,0,0,1,774.051,488.365Z" transform="translate(-21.473 -17.879)" fill="none" stroke="#fff" stroke-linecap="round" stroke-linejoin="round" stroke-width="1.5"/>
  </g>
</svg>
