<svg xmlns="http://www.w3.org/2000/svg" width="19.731" height="18.304" viewBox="0 0 19.731 18.304">
  <g id="그룹_72" data-name="그룹 72" transform="translate(-608.748 -848.406)">
    <path id="패스_53" data-name="패스 53" d="M627.729,879.391v3.4a3.09,3.09,0,0,1-3.09,3.09h-12.05a3.09,3.09,0,0,1-3.091-3.09" transform="translate(0 -19.92)" fill="none" stroke="#fff" stroke-linecap="round" stroke-linejoin="round" stroke-width="1.5"/>
    <path id="패스_54" data-name="패스 54" d="M627.729,863.461a3.09,3.09,0,0,0-3.09-3.09h-12.05a3.09,3.09,0,0,0-3.091,3.09v3.4h8.261" transform="translate(0 -7.389)" fill="none" stroke="#fff" stroke-linecap="round" stroke-linejoin="round" stroke-width="1.5"/>
    <path id="패스_55" data-name="패스 55" d="M627.709,851.194v-1.156a.883.883,0,0,1,.883-.883h4.039a.882.882,0,0,1,.883.883v1.156" transform="translate(-11.998)" fill="none" stroke="#fff" stroke-linecap="round" stroke-linejoin="round" stroke-width="1.5"/>
    <path id="패스_56" data-name="패스 56" d="M645.829,880.837h-3.041v-3.33l.76-.8.76-.8.761.8.76.8v3.33Z" transform="translate(-21.933 -17.624)" fill="none" stroke="#fff" stroke-linecap="round" stroke-linejoin="round" stroke-width="1.5"/>
    <path id="패스_57" data-name="패스 57" d="M647.244,863.617v-3.08" transform="translate(-24.868 -7.498)" fill="none" stroke="#fff" stroke-linecap="round" stroke-linejoin="round" stroke-width="1.5"/>
  </g>
</svg>
