<svg xmlns="http://www.w3.org/2000/svg" width="21.436" height="19.14" viewBox="0 0 21.436 19.14">
  <g id="그룹_42" data-name="그룹 42" transform="translate(-733.535 -456.401)">
    <line id="선_17" data-name="선 17" x2="3.477" y2="6.024" transform="translate(746.04 462.875)" fill="none" stroke="#fff" stroke-linecap="round" stroke-linejoin="round" stroke-width="1.5"/>
    <line id="선_18" data-name="선 18" y1="6.02" x2="3.476" transform="translate(739.157 462.98)" fill="none" stroke="#fff" stroke-linecap="round" stroke-linejoin="round" stroke-width="1.5"/>
    <line id="선_19" data-name="선 19" x1="7.295" transform="translate(740.617 471.77)" fill="none" stroke="#fff" stroke-linecap="round" stroke-linejoin="round" stroke-width="1.5"/>
    <path id="패스_33" data-name="패스 33" d="M757.439,460.259a3.108,3.108,0,1,1-3.108-3.108A3.108,3.108,0,0,1,757.439,460.259Z" transform="translate(-10.115)" fill="none" stroke="#fff" stroke-linecap="round" stroke-linejoin="round" stroke-width="1.5"/>
    <path id="패스_34" data-name="패스 34" d="M740.5,488.621a3.108,3.108,0,1,1-3.107-3.108A3.108,3.108,0,0,1,740.5,488.621Z" transform="translate(0 -16.938)" fill="none" stroke="#fff" stroke-linecap="round" stroke-linejoin="round" stroke-width="1.5"/>
    <path id="패스_35" data-name="패스 35" d="M774.564,488.621a3.108,3.108,0,1,1-3.108-3.108A3.108,3.108,0,0,1,774.564,488.621Z" transform="translate(-20.343 -16.938)" fill="none" stroke="#fff" stroke-linecap="round" stroke-linejoin="round" stroke-width="1.5"/>
  </g>
</svg>
