<svg xmlns="http://www.w3.org/2000/svg" width="19.368" height="16.245" viewBox="0 0 19.368 16.245">
  <g id="그룹_37" data-name="그룹 37" transform="translate(-731.139 -709.431)">
    <path id="패스_28" data-name="패스 28" d="M739.823,722.582l-7.934-6.19v11.236a1.268,1.268,0,0,0,1.268,1.268h15.332a1.268,1.268,0,0,0,1.268-1.268V716.392l-7.934,6.19A1.715,1.715,0,0,1,739.823,722.582Z" transform="translate(0 -3.971)" fill="none" stroke="#fff" stroke-linecap="round" stroke-linejoin="round" stroke-width="1.5"/>
    <path id="패스_29" data-name="패스 29" d="M748.489,710.181H733.157a1.268,1.268,0,0,0-1.268,1.268v.973l7.934,6.19a1.715,1.715,0,0,0,2,0l7.934-6.19v-.972A1.268,1.268,0,0,0,748.489,710.181Z" transform="translate(0)" fill="none" stroke="#fff" stroke-linecap="round" stroke-linejoin="round" stroke-width="1.5"/>
  </g>
</svg>
