<svg xmlns="http://www.w3.org/2000/svg" width="21.497" height="21.497" viewBox="0 0 21.497 21.497">
  <g id="그룹_38" data-name="그룹 38" transform="translate(-468.61 -207.16)">
    <path id="패스_30" data-name="패스 30" d="M486.439,214.813h-1.317V216.2a1.363,1.363,0,1,1-2.725,0v-1.389h-6.463V216.2a1.362,1.362,0,1,1-2.724,0v-1.389h-1.318a2.752,2.752,0,0,0-2.725,2.778v11.665a2.751,2.751,0,0,0,2.725,2.777h14.547a2.751,2.751,0,0,0,2.724-2.777V217.591A2.752,2.752,0,0,0,486.439,214.813Z" transform="translate(0.193 -4.126)" fill="none" stroke="#fff" stroke-linecap="round" stroke-linejoin="round" stroke-width="1.5"/>
    <path id="패스_31" data-name="패스 31" d="M480.762,207.91a1.369,1.369,0,0,0-1.35,1.388v2.778a1.351,1.351,0,1,0,2.7,0V209.3A1.37,1.37,0,0,0,480.762,207.91Z" transform="translate(-5.983)" fill="none" stroke="#fff" stroke-linecap="round" stroke-linejoin="round" stroke-width="1.5"/>
    <path id="패스_32" data-name="패스 32" d="M504.043,207.91a1.37,1.37,0,0,0-1.35,1.388v2.778a1.351,1.351,0,1,0,2.7,0V209.3A1.369,1.369,0,0,0,504.043,207.91Z" transform="translate(-20.105)" fill="none" stroke="#fff" stroke-linecap="round" stroke-linejoin="round" stroke-width="1.5"/>
    <line id="선_15" data-name="선 15" x2="6.459" transform="translate(476.129 217.922)" fill="none" stroke="#fff" stroke-linecap="round" stroke-linejoin="round" stroke-width="1.5"/>
    <line id="선_16" data-name="선 16" x2="6.459" transform="translate(476.129 222.588)" fill="none" stroke="#fff" stroke-linecap="round" stroke-linejoin="round" stroke-width="1.5"/>
  </g>
</svg>
