<svg xmlns="http://www.w3.org/2000/svg" width="16.642" height="16.642" viewBox="0 0 16.642 16.642">
  <g id="그룹_33" data-name="그룹 33" transform="translate(-479.423 -482.78)">
    <path id="패스_24" data-name="패스 24" d="M495.315,492.225v-2.249l-2.017-.614a5.779,5.779,0,0,0-.4-.956l.995-1.865-1.59-1.59-1.865.995a5.784,5.784,0,0,0-.955-.4l-.614-2.017H486.62l-.614,2.017a5.768,5.768,0,0,0-.956.4l-1.865-.995-1.59,1.59.994,1.865a5.75,5.75,0,0,0-.4.956l-2.018.614v2.249l2.018.614a5.752,5.752,0,0,0,.4.956l-.994,1.865,1.59,1.59,1.865-.994a5.8,5.8,0,0,0,.956.4l.614,2.018h2.249l.614-2.018a5.819,5.819,0,0,0,.955-.4l1.865.994,1.59-1.59-.995-1.865a5.76,5.76,0,0,0,.4-.956Z" transform="translate(0 0)" fill="none" stroke="#fff" stroke-linejoin="round" stroke-width="1.5"/>
    <circle id="타원_7" data-name="타원 7" cx="1.974" cy="1.974" r="1.974" transform="translate(485.77 489.127)" fill="none" stroke="#fff" stroke-linejoin="round" stroke-width="1.5"/>
  </g>
</svg>
