<?xml version="1.0" encoding="utf-8"?>
<!-- Generator: Adobe Illustrator 25.4.1, SVG Export Plug-In . SVG Version: 6.00 Build 0)  -->
<svg version="1.1" id="레이어_1" xmlns="http://www.w3.org/2000/svg" xmlns:xlink="http://www.w3.org/1999/xlink" x="0px"
	 y="0px" viewBox="0 0 48.3 38.3" style="enable-background:new 0 0 48.3 38.3;" xml:space="preserve">
<style type="text/css">
	.st0{fill:#00EDDD;}
	.st1{fill:#FFD281;}
	.st2{fill:#FFA683;}
	.st3{fill:#FFFFFF;}
</style>
<g id="그룹_187" transform="translate(-91.105 -820.107)">
	<g id="그룹_58" transform="translate(-304.676 713.346)">
		<path id="패스_41" class="st0" d="M436.8,116h-17.7c-4,0-7.3,3.3-7.3,7.3l0,0v7.1c0,4,3.3,7.3,7.3,7.3h18.2l4,6.8
			c0.5,0.7,1.4,0.8,2.1,0.3c0.4-0.3,0.6-0.7,0.6-1.2v-20.3C444.1,119.3,440.8,116,436.8,116z"/>
		<path id="패스_42" class="st1" d="M428,114v7.1c0,4-3.3,7.3-7.3,7.3h-18.2l-4,6.8c-0.5,0.7-1.4,0.8-2.1,0.3
			c-0.4-0.3-0.6-0.7-0.6-1.2V114c0-4,3.3-7.3,7.3-7.3c0,0,0,0,0,0h17.7C424.7,106.8,428,110,428,114C428,114,428,114,428,114z"/>
		<path id="패스_43" class="st2" d="M428,116v5.1c0,4-3.3,7.3-7.3,7.3h-8.8v-5.1c0-4,3.3-7.3,7.3-7.3c0,0,0,0,0,0L428,116z"/>
		<circle id="타원_17" class="st3" cx="419.4" cy="118.1" r="2.4"/>
		<circle id="타원_18" class="st3" cx="411.9" cy="118.1" r="2.4"/>
		<circle id="타원_19" class="st3" cx="404.4" cy="118.1" r="2.4"/>
	</g>
</g>
</svg>
