<svg xmlns="http://www.w3.org/2000/svg" width="15.617" height="16.596" viewBox="0 0 15.617 16.596">
  <path id="free-icon-address-book-1370923_1_" data-name="free-icon-address-book-1370923 (1)" d="M14.932,0H2.6a.667.667,0,0,0-.685.648V3.112H.685A.667.667,0,0,0,0,3.76a.667.667,0,0,0,.685.648H1.918V7.65H.685a.649.649,0,1,0,0,1.3H1.918v3.241H.685a.649.649,0,1,0,0,1.3H1.918v2.463A.667.667,0,0,0,2.6,16.6H14.932a.667.667,0,0,0,.685-.648V.648A.667.667,0,0,0,14.932,0Zm-.685,15.3H3.288V13.484H4.11a.649.649,0,1,0,0-1.3H3.288V8.946H4.11a.649.649,0,1,0,0-1.3H3.288V4.408H4.11a.667.667,0,0,0,.685-.648.667.667,0,0,0-.685-.648H3.288V1.3H14.247ZM6.2,11.377a.667.667,0,0,0,.685-.648A1.837,1.837,0,0,1,8.767,8.946a1.837,1.837,0,0,1,1.884,1.783.686.686,0,0,0,1.37,0,3.044,3.044,0,0,0-1.5-2.593,2.026,2.026,0,0,0,.473-1.3A2.171,2.171,0,0,0,8.767,4.732,2.171,2.171,0,0,0,6.541,6.839a2.026,2.026,0,0,0,.473,1.3,3.045,3.045,0,0,0-1.5,2.593A.667.667,0,0,0,6.2,11.377ZM7.911,6.839a.857.857,0,1,1,.856.81A.835.835,0,0,1,7.911,6.839Zm0,0"/>
</svg>
