<?xml version="1.0" encoding="utf-8"?>
<!-- Generator: Adobe Illustrator 16.0.3, SVG Export Plug-In . SVG Version: 6.00 Build 0)  -->
<!DOCTYPE svg PUBLIC "-//W3C//DTD SVG 1.1//EN" "http://www.w3.org/Graphics/SVG/1.1/DTD/svg11.dtd">
<svg version="1.1" id="레이어_1" xmlns="http://www.w3.org/2000/svg" xmlns:xlink="http://www.w3.org/1999/xlink" x="0px"
	 y="0px" width="20px" height="20px" viewBox="0 0 20 20" enable-background="new 0 0 20 20" xml:space="preserve">
<path display="none" fill="#BFBFBF" d="M10,1c4.963,0,9,4.037,9,8.999C19,14.962,14.963,19,10,19c-4.962,0-9-4.038-9-9.001
	C1,5.037,5.038,1,10,1 M10,0C4.477,0,0,4.477,0,9.999C0,15.521,4.477,20,10,20c5.521,0,10-4.479,10-10.001C20,4.477,15.521,0,10,0
	L10,0z"/>
<g>
	<path fill="#FFFFFF" d="M18.652,17.985c0,1.104-0.895,1.999-1.999,1.999H1.998C0.894,19.984,0,19.09,0,17.985V3.331
		c0-1.104,0.894-1.999,1.998-1.999h14.655c1.104,0,1.999,0.894,1.999,1.999V17.985z"/>
	<g>
		<path fill="#BFBFBF" d="M17.32,1.332c0.734,0,1.332,0.599,1.332,1.333V17.32c0,0.735-0.598,1.332-1.332,1.332H2.665
			c-0.734,0-1.333-0.597-1.333-1.332V2.665c0-0.734,0.599-1.333,1.333-1.333H17.32 M17.32,0H2.665C1.199,0,0,1.2,0,2.665V17.32
			c0,1.465,1.199,2.664,2.665,2.664H17.32c1.465,0,2.664-1.199,2.664-2.664V2.665C19.984,1.2,18.785,0,17.32,0L17.32,0z"/>
	</g>
</g>
</svg>
