<?xml version="1.0" encoding="utf-8"?>
<!-- Generator: Adobe Illustrator 16.0.3, SVG Export Plug-In . SVG Version: 6.00 Build 0)  -->
<!DOCTYPE svg PUBLIC "-//W3C//DTD SVG 1.1//EN" "http://www.w3.org/Graphics/SVG/1.1/DTD/svg11.dtd">
<svg version="1.1" id="레이어_1" xmlns="http://www.w3.org/2000/svg" xmlns:xlink="http://www.w3.org/1999/xlink" x="0px"
	 y="0px" width="20px" height="20px" viewBox="0 0 20 20" enable-background="new 0 0 20 20" xml:space="preserve">
<path display="none" fill="#0091FF" d="M10,1c4.963,0,9,4.037,9,8.999C19,14.962,14.963,19,10,19c-4.962,0-9-4.038-9-9.001
	C1,5.037,5.038,1,10,1 M10,0C4.477,0,0,4.477,0,9.999C0,15.521,4.477,20,10,20c5.521,0,10-4.479,10-10.001C20,4.477,15.521,0,10,0
	L10,0z"/>
<circle display="none" fill="#0091FF" cx="10" cy="10" r="7"/>
<g>
	<path fill="#0091FF" d="M0,17.306c0,1.465,1.199,2.663,2.663,2.663h14.643c1.465,0,2.663-1.198,2.663-2.663V2.663
		C19.969,1.198,18.771,0,17.306,0H2.663C1.199,0,0,1.198,0,2.663V17.306z"/>
</g>
<g>
	<path fill="#FFFFFF" d="M15.902,7.807l-5.363,5.363l-1.008,1.009c-0.134,0.133-0.317,0.205-0.503,0.205
		c-0.185,0-0.372-0.074-0.505-0.205L7.517,13.17l-2.683-2.682c-0.136-0.134-0.208-0.319-0.208-0.505
		c0-0.186,0.075-0.371,0.208-0.504l1.009-1.007c0.132-0.132,0.315-0.207,0.504-0.207c0.182,0,0.369,0.074,0.501,0.207l2.179,2.185
		l4.86-4.865c0.134-0.133,0.316-0.208,0.504-0.208c0.185,0,0.369,0.075,0.502,0.208l1.009,1.006
		c0.133,0.134,0.205,0.319,0.205,0.504C16.109,7.488,16.035,7.673,15.902,7.807z"/>
</g>
</svg>
