<svg id="그룹_53" data-name="그룹 53" xmlns="http://www.w3.org/2000/svg" width="80" height="80" viewBox="0 0 80 80">
  <g id="패스_572" data-name="패스 572" fill="#dde3ed">
    <path d="M40,0A40,40,0,1,1,0,40,40,40,0,0,1,40,0Z" stroke="none"/>
    <path d="M 40 2 C 34.8691520690918 2 29.89284515380859 3.004432678222656 25.20929336547852 4.98541259765625 C 20.68452835083008 6.899223327636719 16.62044525146484 9.639450073242188 13.12994384765625 13.12994384765625 C 9.639450073242188 16.62044525146484 6.899223327636719 20.68452835083008 4.98541259765625 25.20929336547852 C 3.004432678222656 29.89284515380859 2 34.8691520690918 2 40 C 2 45.1308479309082 3.004432678222656 50.10715484619141 4.98541259765625 54.79070663452148 C 6.899223327636719 59.31546783447266 9.639450073242188 63.37955474853516 13.12994384765625 66.87005615234375 C 16.62044525146484 70.36054992675781 20.68452835083008 73.10077667236328 25.20929336547852 75.01458740234375 C 29.89284515380859 76.99556732177734 34.8691520690918 78 40 78 C 45.1308479309082 78 50.10715484619141 76.99556732177734 54.79070663452148 75.01458740234375 C 59.31546783447266 73.10077667236328 63.37955474853516 70.36054992675781 66.87005615234375 66.87005615234375 C 70.36054992675781 63.37955474853516 73.10077667236328 59.31546783447266 75.01458740234375 54.79070663452148 C 76.99556732177734 50.10715484619141 78 45.1308479309082 78 40 C 78 34.8691520690918 76.99556732177734 29.89284515380859 75.01458740234375 25.20929336547852 C 73.10077667236328 20.68452835083008 70.36054992675781 16.62044525146484 66.87005615234375 13.12994384765625 C 63.37955474853516 9.639450073242188 59.31546783447266 6.899223327636719 54.79070663452148 4.98541259765625 C 50.10715484619141 3.004432678222656 45.1308479309082 2 40 2 M 40 0 C 62.09138870239258 0 80 17.90861129760742 80 40 C 80 62.09138870239258 62.09138870239258 80 40 80 C 17.90861129760742 80 0 62.09138870239258 0 40 C 0 17.90861129760742 17.90861129760742 0 40 0 Z" stroke="none" fill="rgba(0,0,0,0.05)"/>
  </g>
  <g id="icon" transform="translate(-36.086 -826)">
    <path id="합치기_5" data-name="합치기 5" d="M0,19.747V15.811A5.96,5.96,0,0,1,5.95,9.855H9.286a5.959,5.959,0,0,1,5.95,5.956v3.937ZM3.017,4.605a4.6,4.6,0,1,1,4.6,4.605A4.608,4.608,0,0,1,3.017,4.605Z" transform="translate(83.851 859.837)" fill="#fff"/>
    <path id="합치기_3" data-name="합치기 3" d="M0,19.747V15.811A5.96,5.96,0,0,1,5.95,9.855H9.286a5.959,5.959,0,0,1,5.95,5.956v3.937ZM3.017,4.605a4.6,4.6,0,1,1,4.6,4.605A4.608,4.608,0,0,1,3.017,4.605Z" transform="translate(53.086 859.837)" fill="#fff"/>
    <path id="합치기_4" data-name="합치기 4" d="M15.626,0H10.012C4.491,0,0,4.153,0,9.259V15.38H25.637V9.259C25.637,4.153,21.146,0,15.626,0Z" transform="translate(63.268 864.557)" fill="#dde3ed"/>
    <path id="합치기_2" data-name="합치기 2" d="M0,26.584v-5.3a8.023,8.023,0,0,1,8.01-8.018H12.5a8.022,8.022,0,0,1,8.009,8.018v5.3ZM4.062,6.2a6.193,6.193,0,1,1,6.193,6.2A6.2,6.2,0,0,1,4.062,6.2Z" transform="translate(65.831 853)" fill="#fff"/>
  </g>
</svg>
