<?xml version="1.0" encoding="utf-8"?>
<!-- Generator: Adobe Illustrator 25.4.1, SVG Export Plug-In . SVG Version: 6.00 Build 0)  -->
<svg version="1.1" id="레이어_1" xmlns="http://www.w3.org/2000/svg" xmlns:xlink="http://www.w3.org/1999/xlink" x="0px"
	 y="0px" viewBox="0 0 80 80" style="enable-background:new 0 0 80 80;" xml:space="preserve">
<style type="text/css">
	.st0{fill:#E6E7E8;}
	.st1{fill:#FFFFFF;}
</style>
<g id="패스_325">
	<path class="st0" d="M40,0c22.09,0,40,17.91,40,40S62.09,80,40,80S0,62.09,0,40S17.91,0,40,0z"/>
	<path class="st0" d="M40,2c-5.13,0-10.11,1-14.79,2.99c-4.52,1.91-8.59,4.65-12.08,8.14c-3.49,3.49-6.23,7.55-8.14,12.08
		C3,29.89,2,34.87,2,40s1,10.11,2.99,14.79c1.91,4.52,4.65,8.59,8.14,12.08c3.49,3.49,7.55,6.23,12.08,8.14C29.89,77,34.87,78,40,78
		s10.11-1,14.79-2.99c4.52-1.91,8.59-4.65,12.08-8.14c3.49-3.49,6.23-7.55,8.14-12.08C77,50.11,78,45.13,78,40s-1-10.11-2.99-14.79
		c-1.91-4.52-4.65-8.59-8.14-12.08c-3.49-3.49-7.55-6.23-12.08-8.14C50.11,3,45.13,2,40,2 M40,0c22.09,0,40,17.91,40,40
		S62.09,80,40,80S0,62.09,0,40S17.91,0,40,0z"/>
</g>
<path id="합치기_1" class="st1" d="M28,53.89v-6.18c0.01-5.17,4.21-9.35,9.37-9.35h5.26c5.17,0,9.36,4.18,9.37,9.35v6.18H28z
	 M32.75,30.12c-0.01-4,3.23-7.26,7.23-7.26s7.26,3.23,7.26,7.23s-3.23,7.26-7.23,7.26c-0.01,0-0.01,0-0.02,0
	C36,37.35,32.76,34.12,32.75,30.12z"/>
</svg>
