<svg xmlns="http://www.w3.org/2000/svg" width="16" height="15.5" viewBox="0 0 16 15.5">
  <g id="그룹_410" data-name="그룹 410" transform="translate(207.27 92.471)">
    <g id="그룹_408" data-name="그룹 408" transform="translate(-207.27 -92.471)">
      <path id="패스_3510" data-name="패스 3510" d="M-203.251-80.989v-4.02a1.723,1.723,0,0,1,1.726-1.722h5.163v-1.148h-2.867a1.146,1.146,0,0,1-1.151-1.147v-3.446h-5.736a1.152,1.152,0,0,0-1.153,1.152v13.2a1.148,1.148,0,0,0,1.146,1.153h8.613a1.146,1.146,0,0,0,1.147-1.147v-1.149h-5.163A1.72,1.72,0,0,1-203.251-80.989Z" transform="translate(207.27 92.471)" fill="#d9dce1"/>
      <path id="패스_3511" data-name="패스 3511" d="M-193.7-88.452h2.876l-3.444-4.019v3.443A.575.575,0,0,0-193.7-88.452Z" transform="translate(201.733 92.471)" fill="#4ca594"/>
      <path id="사각형_1534" data-name="사각형 1534" d="M1.992,0H9.005A1.995,1.995,0,0,1,11,1.995V5.008A1.992,1.992,0,0,1,9.008,7H1.994A1.994,1.994,0,0,1,0,5.006V1.992A1.992,1.992,0,0,1,1.992,0Z" transform="translate(5 6)" fill="#4ca594"/>
    </g>
    <g id="그룹_409" data-name="그룹 409" transform="translate(-201.571 -85.049)">
      <path id="패스_3512" data-name="패스 3512" d="M-196.9-75.483a1.154,1.154,0,0,1-.443-.37l.468-.336a.537.537,0,0,0,.227.213.748.748,0,0,0,.344.076.656.656,0,0,0,.518-.208.849.849,0,0,0,.183-.583v-2.778h.572v2.781a1.61,1.61,0,0,1-.149.723,1.027,1.027,0,0,1-.435.457,1.415,1.415,0,0,1-.689.157A1.353,1.353,0,0,1-196.9-75.483Z" transform="translate(197.343 79.511)" fill="#fff"/>
      <path id="패스_3513" data-name="패스 3513" d="M-191.557-79.469h.572v4.075h-.572Zm.294,1.951h1.3a.6.6,0,0,0,.325-.087.571.571,0,0,0,.218-.247.838.838,0,0,0,.077-.367.847.847,0,0,0-.077-.37.577.577,0,0,0-.218-.248.594.594,0,0,0-.325-.088h-1.3v-.544h1.284a1.288,1.288,0,0,1,.642.156,1.081,1.081,0,0,1,.431.439,1.362,1.362,0,0,1,.153.656,1.354,1.354,0,0,1-.153.654,1.078,1.078,0,0,1-.431.436,1.3,1.3,0,0,1-.642.154h-1.284Z" transform="translate(194.879 79.511)" fill="#fff"/>
      <path id="패스_3514" data-name="패스 3514" d="M-182.706-77.619v.712a1.735,1.735,0,0,1-.176.8,1.276,1.276,0,0,1-.5.536,1.455,1.455,0,0,1-.75.189,1.566,1.566,0,0,1-.758-.178,1.249,1.249,0,0,1-.506-.5,1.536,1.536,0,0,1-.18-.754v-1.2a1.732,1.732,0,0,1,.177-.8,1.278,1.278,0,0,1,.5-.534,1.455,1.455,0,0,1,.75-.189,1.4,1.4,0,0,1,.646.15,1.377,1.377,0,0,1,.494.425,1.575,1.575,0,0,1,.269.636h-.619a.888.888,0,0,0-.171-.352.813.813,0,0,0-.283-.224.773.773,0,0,0-.336-.077.813.813,0,0,0-.443.121.791.791,0,0,0-.294.338,1.155,1.155,0,0,0-.1.506v1.2a.955.955,0,0,0,.106.461.761.761,0,0,0,.3.307.9.9,0,0,0,.45.109.847.847,0,0,0,.443-.114.746.746,0,0,0,.295-.33,1.175,1.175,0,0,0,.1-.513v-.177h-.827v-.547Z" transform="translate(192.331 79.542)" fill="#fff"/>
    </g>
  </g>
</svg>
