<svg xmlns="http://www.w3.org/2000/svg" width="19.838" height="22.89" viewBox="0 0 19.838 22.89">
  <g id="Layer_17" data-name="Layer 17" transform="translate(-3 -1)">
    <path id="패스_3495" data-name="패스 3495" d="M19.5,25.549H7.289A2.289,2.289,0,0,1,5,23.26V8.763a.763.763,0,1,1,1.526,0v14.5a.763.763,0,0,0,.763.763H19.5a.763.763,0,0,0,.763-.763V8.763a.763.763,0,1,1,1.526,0v14.5A2.289,2.289,0,0,1,19.5,25.549Z" transform="translate(-0.474 -1.659)" fill="#fff"/>
    <path id="패스_3496" data-name="패스 3496" d="M22.075,6.526H3.763A.763.763,0,1,1,3.763,5H22.075a.763.763,0,0,1,0,1.526Z" transform="translate(0 -0.948)" fill="#fff"/>
    <path id="패스_3497" data-name="패스 3497" d="M17.867,5.578a.763.763,0,0,1-.763-.763V2.526H12.526V4.815a.763.763,0,0,1-1.526,0V1.763A.763.763,0,0,1,11.763,1h6.1a.763.763,0,0,1,.763.763V4.815A.763.763,0,0,1,17.867,5.578Z" transform="translate(-1.896 0)" fill="#fff"/>
    <path id="패스_3498" data-name="패스 3498" d="M15.763,22.208A.763.763,0,0,1,15,21.445V10.763a.763.763,0,0,1,1.526,0V21.445A.763.763,0,0,1,15.763,22.208Z" transform="translate(-2.844 -2.133)" fill="#fff"/>
    <path id="패스_3499" data-name="패스 3499" d="M20.763,21.156A.763.763,0,0,1,20,20.393v-7.63a.763.763,0,1,1,1.526,0v7.63A.763.763,0,0,1,20.763,21.156Z" transform="translate(-4.029 -2.607)" fill="#fff"/>
    <path id="패스_3500" data-name="패스 3500" d="M10.763,21.156A.763.763,0,0,1,10,20.393v-7.63a.763.763,0,1,1,1.526,0v7.63A.763.763,0,0,1,10.763,21.156Z" transform="translate(-1.659 -2.607)" fill="#fff"/>
  </g>
</svg>
