<svg xmlns="http://www.w3.org/2000/svg" width="21.928" height="22.334" viewBox="0 0 21.928 22.334">
  <path id="mail_2_" data-name="mail (2)" d="M2.018,21.736H18.581a2.413,2.413,0,0,0,2.433-2.387V8.321a.354.354,0,0,0-.188-.311L11.869.567a2.46,2.46,0,0,0-3.145,0L-.2,8a.355.355,0,0,0-.209.322V19.349a2.413,2.413,0,0,0,2.433,2.387Zm0-.711a1.721,1.721,0,0,1-1.034-.343L5.937,15.71a.351.351,0,0,0,.092-.346.36.36,0,0,0-.26-.25.368.368,0,0,0-.35.1L.513,20.138a1.638,1.638,0,0,1-.2-.789V9.1l8.42,7a2.461,2.461,0,0,0,3.146,0l8.413-7s.051,7.49,0,10.251-.069.548-.2.792L15.15,15.213a.367.367,0,0,0-.511,0,.351.351,0,0,0-.006.5l4.98,4.972a1.72,1.72,0,0,1-1.032.342ZM9.192,1.111a1.727,1.727,0,0,1,2.209,0l8.69,7.22-8.683,7.227a1.727,1.727,0,0,1-2.208,0L.509,8.338Zm0,0" transform="translate(0.664 0.348)" fill="#fff" stroke="#fff" stroke-width="0.5"/>
</svg>
