<svg xmlns="http://www.w3.org/2000/svg" width="20.942" height="20" viewBox="0 0 20.942 20">
  <g id="그룹_136" data-name="그룹 136" transform="translate(-296 -386.5)">
    <path id="패스_287" data-name="패스 287" d="M314.5,394.686h0V403.5A1.5,1.5,0,0,1,313,405H299a1.5,1.5,0,0,1-1.5-1.5v-14A1.5,1.5,0,0,1,299,388h13.716l1.309-1.309c-.091-.031-.183-.061-.277-.085-.059-.016-.116-.037-.177-.048A2.98,2.98,0,0,0,313,386.5H299a3,3,0,0,0-3,3v14a3,3,0,0,0,3,3h14a3,3,0,0,0,3-3V393.173Z" fill="#070203"/>
    <path id="Checkbox" d="M305.442,401l-5.9-5.9,1.4-1.4,4.5,4.4,10.1-10.1,1.4,1.4Z" fill="#3c85ef"/>
  </g>
</svg>
