<svg xmlns="http://www.w3.org/2000/svg" width="13.66" height="9.807" viewBox="0 0 13.66 9.807">
  <g id="그룹_426" data-name="그룹 426" transform="translate(-146.072 -80.752) rotate(11)">
    <path id="패스_3545" data-name="패스 3545" d="M178.232,55.507a5.3,5.3,0,0,1,2.613,3.2,5.649,5.649,0,0,0-1.6-4.487,5.24,5.24,0,0,0-5.3-1.241l-.488-2.21-3.136,4.328,4.586,2.049-.68-2.042A5.047,5.047,0,0,1,178.232,55.507Z" transform="translate(-8.287 0)"/>
    <g id="그룹_425" data-name="그룹 425" transform="translate(160.013 51.275)">
      <path id="패스_3546" data-name="패스 3546" d="M163.406,54.522l-.257-1.163-3.136,4.328,4.586,2.049-.412-1.237-2.767-1.236Z" transform="translate(-160.013 -53.359)"/>
    </g>
  </g>
</svg>
