<?xml version="1.0" encoding="utf-8"?>
<!-- Generator: Adobe Illustrator 25.4.1, SVG Export Plug-In . SVG Version: 6.00 Build 0)  -->
<svg version="1.1" id="레이어_1" xmlns="http://www.w3.org/2000/svg" xmlns:xlink="http://www.w3.org/1999/xlink" x="0px"
	 y="0px" viewBox="0 0 4 18" style="enable-background:new 0 0 4 18;" xml:space="preserve">
<style type="text/css">
	.st0{fill:#2B3244;}
</style>
<g id="그룹_387" transform="translate(-342 -65)">
	<path id="사각형_249" class="st0" d="M344,65L344,65c1.1,0,2,0.9,2,2l0,0c0,1.1-0.9,2-2,2l0,0c-1.1,0-2-0.9-2-2l0,0
		C342,65.9,342.9,65,344,65z"/>
	<path id="사각형_254" class="st0" d="M344,72L344,72c1.1,0,2,0.9,2,2l0,0c0,1.1-0.9,2-2,2l0,0c-1.1,0-2-0.9-2-2l0,0
		C342,72.9,342.9,72,344,72z"/>
	<path id="사각형_255" class="st0" d="M344,79L344,79c1.1,0,2,0.9,2,2l0,0c0,1.1-0.9,2-2,2l0,0c-1.1,0-2-0.9-2-2l0,0
		C342,79.9,342.9,79,344,79z"/>
</g>
</svg>
