<svg xmlns="http://www.w3.org/2000/svg" width="16" height="16" viewBox="0 0 16 16">
  <path id="iconfinder_office-48_809574" d="M16.579,4a3.828,3.828,0,0,0-5.16,0L5.183,9.733a1.915,1.915,0,0,0,0,2.867,2.279,2.279,0,0,0,3.082,0l5.16-4.8a.614.614,0,0,0,0-.933.729.729,0,0,0-1,0l-5.16,4.8a.729.729,0,0,1-1,0,.614.614,0,0,1,0-.933l6.235-5.8a2.279,2.279,0,0,1,3.082,0,1.915,1.915,0,0,1,0,2.867L9.34,13.533a3.828,3.828,0,0,1-5.16,0,3.217,3.217,0,0,1,0-4.8l8.242-7.6a.614.614,0,0,0,0-.933.729.729,0,0,0-1,0L3.105,7.867a4.518,4.518,0,0,0,0,6.733,5.378,5.378,0,0,0,7.239,0l6.235-5.733A3.41,3.41,0,0,0,16.579,4Z" transform="translate(-1.6)" fill="#5d5d5d"/>
</svg>
