<svg xmlns="http://www.w3.org/2000/svg" width="13.867" height="16" viewBox="0 0 13.867 16">
  <g id="Layer_17" data-name="Layer 17" transform="translate(-3 -1)">
    <path id="패스_3495" data-name="패스 3495" d="M14.913,21.732H6.565A1.69,1.69,0,0,1,5,19.941V8.6A.563.563,0,0,1,5.522,8a.563.563,0,0,1,.522.6V19.941a.563.563,0,0,0,.522.6h8.348a.563.563,0,0,0,.522-.6V8.6a.526.526,0,1,1,1.043,0V19.941A1.69,1.69,0,0,1,14.913,21.732Z" transform="translate(-0.806 -4.732)" fill="#3e3a39"/>
    <path id="패스_3496" data-name="패스 3496" d="M16.333,6.194H3.533A.568.568,0,0,1,3,5.6.568.568,0,0,1,3.533,5h12.8a.568.568,0,0,1,.533.6A.568.568,0,0,1,16.333,6.194Z" transform="translate(0 -1.612)" fill="#3e3a39"/>
    <path id="패스_3497" data-name="패스 3497" d="M16.373,4.582a.6.6,0,0,1-.6-.6V2.194H12.194V3.985a.6.6,0,0,1-1.194,0V1.6a.6.6,0,0,1,.6-.6h4.776a.6.6,0,0,1,.6.6V3.985A.6.6,0,0,1,16.373,4.582Z" transform="translate(-4.052)" fill="#3e3a39"/>
    <path id="패스_3498" data-name="패스 3498" d="M15.6,19.553a.6.6,0,0,1-.6-.6V10.6a.6.6,0,0,1,1.194,0v8.359A.6.6,0,0,1,15.6,19.553Z" transform="translate(-5.664 -4.855)" fill="#3e3a39"/>
    <path id="패스_3499" data-name="패스 3499" d="M20.6,19.165a.6.6,0,0,1-.6-.6V12.6a.6.6,0,1,1,1.194,0v5.971A.6.6,0,0,1,20.6,19.165Z" transform="translate(-8.024 -5.601)" fill="#3e3a39"/>
    <path id="패스_3500" data-name="패스 3500" d="M10.6,19.165a.6.6,0,0,1-.6-.6V12.6a.6.6,0,1,1,1.194,0v5.971A.6.6,0,0,1,10.6,19.165Z" transform="translate(-3.304 -5.601)" fill="#3e3a39"/>
  </g>
</svg>
