<svg xmlns="http://www.w3.org/2000/svg" width="17" height="17" viewBox="0 0 17 17">
  <g id="Livello_100" transform="translate(0.5 0.5)">
    <path id="패스_236" data-name="패스 236" d="M16,6.326a.708.708,0,0,0-.78-.763l-4.876-.129L8.678.556a.691.691,0,0,0-1.356,0L5.656,5.434.78,5.563a.677.677,0,0,0-.074,0A.738.738,0,0,0,0,6.326a.783.783,0,0,0,.323.644l3.884,3.08L2.821,14.882a.81.81,0,0,0-.079.351A.738.738,0,0,0,3.448,16a.668.668,0,0,0,.438-.166L8,12.9l4.114,2.93a.668.668,0,0,0,.438.166.738.738,0,0,0,.706-.767.813.813,0,0,0-.079-.351L11.793,10.05l3.884-3.08A.785.785,0,0,0,16,6.326" fill="#fae100" stroke="#fae100" stroke-width="1"/>
  </g>
</svg>
