<svg xmlns="http://www.w3.org/2000/svg" width="17" height="15.5" viewBox="0 0 17 15.5">
  <g id="그룹_415" data-name="그룹 415" transform="translate(61.103 92.471)">
    <g id="그룹_413" data-name="그룹 413" transform="translate(-61.103 -92.471)">
      <path id="패스_3515" data-name="패스 3515" d="M-57.084-80.989v-4.02a1.724,1.724,0,0,1,1.726-1.722H-50.2v-1.148h-2.866a1.147,1.147,0,0,1-1.152-1.147v-3.446H-59.95A1.152,1.152,0,0,0-61.1-91.319v13.2a1.148,1.148,0,0,0,1.146,1.153h8.613A1.146,1.146,0,0,0-50.2-78.118v-1.149h-5.162A1.72,1.72,0,0,1-57.084-80.989Z" transform="translate(61.103 92.471)" fill="#d9dce1"/>
      <path id="패스_3516" data-name="패스 3516" d="M-47.534-88.452h2.875L-48.1-92.471v3.443A.575.575,0,0,0-47.534-88.452Z" transform="translate(55.566 92.471)" fill="#e27747"/>
      <path id="사각형_1536" data-name="사각형 1536" d="M1.992,0h8.013A1.995,1.995,0,0,1,12,1.995V5.008A1.992,1.992,0,0,1,10.008,7H1.994A1.994,1.994,0,0,1,0,5.006V1.992A1.992,1.992,0,0,1,1.992,0Z" transform="translate(5 6)" fill="#e27747"/>
    </g>
    <g id="그룹_414" data-name="그룹 414" transform="translate(-55.014 -85.007)">
      <path id="패스_3517" data-name="패스 3517" d="M-50.5-79.469h.572v4.075H-50.5Zm.295,1.951h1.3a.6.6,0,0,0,.325-.087.571.571,0,0,0,.218-.247.838.838,0,0,0,.077-.367.847.847,0,0,0-.077-.37.577.577,0,0,0-.218-.248.594.594,0,0,0-.325-.088h-1.3v-.544h1.284a1.288,1.288,0,0,1,.642.156,1.081,1.081,0,0,1,.431.439,1.362,1.362,0,0,1,.153.656,1.354,1.354,0,0,1-.153.654,1.078,1.078,0,0,1-.431.436,1.3,1.3,0,0,1-.642.154H-50.2Z" transform="translate(50.497 79.469)" fill="#fff"/>
      <path id="패스_3518" data-name="패스 3518" d="M-44.369-79.469h.572v4.075h-.572Zm.294,1.951h1.3a.6.6,0,0,0,.325-.087.575.575,0,0,0,.218-.247.838.838,0,0,0,.077-.367.847.847,0,0,0-.077-.37.581.581,0,0,0-.218-.248.594.594,0,0,0-.325-.088h-1.3v-.544h1.284a1.288,1.288,0,0,1,.642.156,1.081,1.081,0,0,1,.431.439,1.362,1.362,0,0,1,.153.656,1.354,1.354,0,0,1-.153.654,1.078,1.078,0,0,1-.431.436,1.3,1.3,0,0,1-.642.154h-1.284Z" transform="translate(47.887 79.469)" fill="#fff"/>
      <path id="패스_3519" data-name="패스 3519" d="M-38.534-79.469h2.876v.544h-2.876Zm1.152.334h.572v3.742h-.572Z" transform="translate(45.402 79.469)" fill="#fff"/>
    </g>
  </g>
</svg>
