<svg id="로고" xmlns="http://www.w3.org/2000/svg" width="304.226" height="73.752" viewBox="0 0 304.226 73.752">
  <g id="그룹_4" data-name="그룹 4" transform="translate(102.279 37.766)">
    <path id="패스_4" data-name="패스 4" d="M703.658,693.374v-3.359h4.634v3.359h7.568v3.591h-3.977a2.916,2.916,0,0,1,.309.27,8.712,8.712,0,0,1,1.911,2.606,7.461,7.461,0,0,1,0,6.371,8.685,8.685,0,0,1-1.911,2.606,9.1,9.1,0,0,1-2.8,1.777,9.223,9.223,0,0,1-6.834,0,9.087,9.087,0,0,1-2.8-1.777,8.668,8.668,0,0,1-1.911-2.606,7.459,7.459,0,0,1,0-6.371,8.7,8.7,0,0,1,1.911-2.606,2.834,2.834,0,0,1,.309-.27h-4.131v-3.591Zm7.028,9.459a4.426,4.426,0,0,0-1.39-3.262,4.707,4.707,0,0,0-6.641,0,4.524,4.524,0,0,0,0,6.525,4.707,4.707,0,0,0,6.641,0A4.425,4.425,0,0,0,710.686,702.833Zm14.054,21.43H702.307V713.838h4.4v6.68H724.74Zm-5.328-23.283h-3.9v-3.9h3.9v-6.526h4.17v25.059h-4.17v-6.6h-3.9v-3.9h3.9Z" transform="translate(-695.936 -690.015)" fill="#00448d"/>
    <path id="패스_5" data-name="패스 5" d="M782.079,716.466V692.875h11.236v3.784h-7.1v16.024h2.818a50.078,50.078,0,0,0,8.032-.657V691.369h4.016v11.275h3.668V691.369h4.093v33.708h-4.093v-18.65h-3.668v18.65H797.06V715.81a45.565,45.565,0,0,1-8.147.656Z" transform="translate(-747.715 -690.829)" fill="#00448d"/>
    <path id="패스_6" data-name="패스 6" d="M868.8,699.2v-1.467h-7.568v-3.784H868.8v-3.938h4.247v3.938h7.1v3.784h-7.1V699.2a16.884,16.884,0,0,0,2.008,7.877,24.763,24.763,0,0,0,6.139,7.1l-2.664,2.742a31.767,31.767,0,0,1-7.027-8.147q-.309-.5-.579-1-.27.5-.579,1.043a30.494,30.494,0,0,1-7.22,8.225l-2.973-2.587a26.589,26.589,0,0,0,6.6-7.413A15.534,15.534,0,0,0,868.8,699.2Zm18.456-8.649v11.738h5.1v3.938h-5.1v18.032h-4.17V690.555Z" transform="translate(-794.645 -690.015)" fill="#00448d"/>
    <path id="패스_7" data-name="패스 7" d="M981.789,709.7v3.746h-8.533l.077.077a8.557,8.557,0,0,1,2.008,2.722,7.967,7.967,0,0,1,0,6.68,8.551,8.551,0,0,1-2.008,2.722,9.829,9.829,0,0,1-13.128,0,8.56,8.56,0,0,1-2.008-2.722,7.976,7.976,0,0,1,0-6.68,8.566,8.566,0,0,1,2.008-2.722l.077-.077h-8.533V709.7ZM964.568,697.3v-.039h-9.344V693.6h23.09v3.668H968.97v.039q0,2.625,4.44,4.981a22.31,22.31,0,0,0,6.718,2.046l-1.738,3.166a25.461,25.461,0,0,1-8.881-3.2,14.361,14.361,0,0,1-2.741-2.085,14.4,14.4,0,0,1-2.742,2.085,25.451,25.451,0,0,1-8.88,3.2l-1.737-3.166a22.314,22.314,0,0,0,6.718-2.046Q964.567,699.929,964.568,697.3Zm7.336,22.2a4.644,4.644,0,0,0-1.526-3.494,5.224,5.224,0,0,0-7.22,0,4.766,4.766,0,0,0,0,6.989,5.224,5.224,0,0,0,7.22,0A4.644,4.644,0,0,0,971.9,719.5Z" transform="translate(-849.7 -692.167)" fill="#00448d"/>
    <path id="패스_8" data-name="패스 8" d="M1052.737,692.682v4.595a42.23,42.23,0,0,1-.579,6.95q2.78-.117,5.444-.425V691.369h4.131v26.218H1057.6v-3.552h-7.568v-3.552h7.568v-3.05a79.046,79.046,0,0,1-10,.579h-2.625v6.062h-4.132v-6.062h-7.761v-3.668h14.981a40.17,40.17,0,0,0,.54-6.448v-1.583h-12.2v-3.63Zm9.692,32.4h-23.167v-9.035h4.247v5.29h18.92Z" transform="translate(-898.588 -690.829)" fill="#00448d"/>
  </g>
  <path id="패스_9" data-name="패스 9" d="M1074,654.771,1085.569,644h19.966v22.352l-10.791,9.163.057-15.757-.057-4.588v-.4Z" transform="translate(-820.903 -624.298)" fill="#00448d"/>
  <path id="패스_10" data-name="패스 10" d="M1126,610.736v-7.181l10.791-9.586v16.767Z" transform="translate(-852.16 -593.969)" fill="#d5b45c"/>
  <path id="패스_11" data-name="패스 11" d="M1160.007,644,1160,654.771h5.092L1176.822,644Z" transform="translate(-872.596 -624.214)" fill="#d5b45c"/>
  <g id="그룹_6" data-name="그룹 6" transform="translate(0 37.899)">
    <path id="패스_12" data-name="패스 12" d="M448.806,715.036l6.164-23.153h6.07l5.929,23.153,5.883-23.153h6.305l-9.035,32.988h-5.929l-6.211-23.67-6.307,23.67H445.84l-8.987-32.988h6.3Z" transform="translate(-436.853 -691.271)" fill="#00448d"/>
    <g id="그룹_5" data-name="그룹 5" transform="translate(45.316 0)">
      <rect id="사각형_5" data-name="사각형 5" width="6.307" height="24.094" transform="translate(0.141 9.506)" fill="#00448d"/>
      <rect id="사각형_6" data-name="사각형 6" width="6.588" height="6.212" fill="#ef6b11"/>
    </g>
    <path id="패스_13" data-name="패스 13" d="M585.407,719.115a3.5,3.5,0,0,0,.471,2.259,3.884,3.884,0,0,0,2.447.612h3.812v5.505h-4.942a8.108,8.108,0,0,1-5.975-1.882,7.211,7.211,0,0,1-2.024-5.411V708.1h-4.329v-5.27h4.329v-5.647l6.212-1.882v7.53h5.646v5.27h-5.646Z" transform="translate(-519.81 -693.328)" fill="#00448d"/>
    <path id="패스_14" data-name="패스 14" d="M626.528,690.35h6.307v11.528a8.783,8.783,0,0,1,6.211-2.587,9,9,0,0,1,6.729,2.494q2.445,2.495,2.446,7.53v14.634h-6.3V709.878q0-4.987-4.236-4.988-2.823,0-4.846,3.577v15.482h-6.307Z" transform="translate(-550.863 -690.35)" fill="#00448d"/>
  </g>
</svg>
